General
Complete name                    : E:moviesHINDIdvdHeer Ranjha.2009heer ranjha 1 cd dvdrip tdt.mkv
Format                           : Matroska
File size                        : 707 MiB
Duration                         : 1h 52mn
Overall bit rate                 : 881 Kbps
Encoded date                     : UTC 2010-02-23 21:22:55
Writing application              : mkvmerge v3.0.0 ('Hang up your Hang-Ups') built on Dec 12 2009 15:20:35
Writing library                  : libebml v0.7.9 + libmatroska v0.8.1

Video
ID                               : 1
Format                           : AVC
Format/Info                      : Advanced Video Codec
Format profile                   : Main@L2.1
Format settings, CABAC           : Yes
Format settings, ReFrames        : 1 frame
Muxing mode                      : Container profile=Unknown@2.1
Codec ID                         : V_MPEG4/ISO/AVC
Duration                         : 1h 52mn
Bit rate                         : 773 Kbps
Width                            : 640 pixels
Height                           : 272 pixels
Display aspect ratio             : 2.558
Frame rate                       : 23.976 fps
Resolution                       : 24 bits
Colorimetry                      : 4:2:0
Scan type                        : Progressive
Bits/(Pixel*Frame)               : 0.185
Stream size                      : 620 MiB (88%)
Writing library                  : x264 core 80 r1376M 3feaec2

Audio
ID                               : 2
Format                           : MPEG Audio
Format version                   : Version 1
Format profile                   : Layer 3
Format_Settings_Mode             : Joint stereo / MS Stereo
Codec ID                         : A_MPEG/L3
Codec ID/Hint                    : MP3
Duration                         : 1h 52mn
Bit rate mode                    : Variable
Bit rate                         : 89.7 Kbps
Nominal bit rate                 : 96.0 Kbps
Channel(s)                       : 2 channels
Sampling rate                    : 32.0 KHz
Resolution                       : 16 bits
Stream size                      : 72.0 MiB (10%)
Writing library                  : LAME3.98r
Encoding settings                : -m j -V 4 -q 2 -lowpass 15.1 --abr 96
Language                         : Hindi

SCREEN SHOTS AVAILABLE @ OUR SITE DAYN.ORG FEEL FREE TO REGISTER THERE REGISTRATIONS OPRN

SEEDING FRM SEEDBOX NJOI

IF LOW SPEED REGISTER @ SITE FR FREE AND FEEL FREE TO PM ME